<svg width="12" height="12" viewBox="0 0 14 14" stroke="#10A8C9" stroke-linecap="round" stroke-linejoin="round" fill="none" xmlns="http://www.w3.org/2000/svg">
<path d="M10.3333 3.87333L12.76 1.58M10.3333 3.87333V12.7267M10.3333 3.87333L1.25333 3.87333M5.90667 3.87333L9.19333 1M4.33333 6.33333H7M11.6667 1H5.44467C5.012 1 4.59067 1.14067 4.24467 1.4L1.8 3.23333C1.29667 3.61133 1 4.204 1 4.83333V11.6667C1 12.4033 1.59667 13 2.33333 13H9.33333C9.96267 13 10.5553 12.7033 10.9333 12.2L12.7333 9.8C12.9067 9.56933 13 9.28867 13 9V2.33333C13 1.59667 12.4033 1 11.6667 1Z"/>
</svg>
